# xmcd
#
# Track frame offsets:
# 150
# 15117
# 29600
# 57564
# 79219
#
# Disc length: 1400 seconds
#
# Revision: 1
# Processed by: cddbd v1.5.2PL0 Copyright (c) Steve Scherf et al.
# Submitted via: CedeCatalogueitor 2.6.0.6 http://personales.ya.com/cdcatalogueitor
#
DISCID=35057605
DTITLE=Tiga - You Gonna Want Me [CD Mixes)
DYEAR=1900
DGENRE=
TTITLE0=You Gonna Want Me (Van She Radio Edit)
TTITLE1=You Gonna Want Me (Original)
TTITLE2=You Gonna Want Me (Tocadisco Rmx)
TTITLE3=You Gonna Want Me (Van She Rmx)
TTITLE4=You Gonna Want Me (Original 12" Dance Mix)
EXTD=
EXTT0=
EXTT1=
EXTT2=
EXTT3=
EXTT4=
PLAYORDER=
